<svg xmlns="http://www.w3.org/2000/svg" width="200" height="200" viewBox="0 0 200 200">
  <metadata><?xpacket begin="﻿" id="W5M0MpCehiHzreSzNTczkc9d"?>
<x:xmpmeta xmlns:x="adobe:ns:meta/" x:xmptk="Adobe XMP Core 5.6-c138 79.159824, 2016/09/14-01:09:01        ">
   <rdf:RDF xmlns:rdf="http://www.w3.org/1999/02/22-rdf-syntax-ns#">
      <rdf:Description rdf:about=""/>
   </rdf:RDF>
</x:xmpmeta>
                                                                                                    
                                                                                                    
                                                                                                    
                                                                                                    
                                                                                                    
                                                                                                    
                                                                                                    
                                                                                                    
                                                                                                    
                                                                                                    
                                                                                                    
                                                                                                    
                                                                                                    
                                                                                                    
                                                                                                    
                                                                                                    
                                                                                                    
                                                                                                    
                                                                                                    
                                                                                                    
                           
<?xpacket end="w"?></metadata>
<defs>
    <style>
      .cls-1, .cls-2 {
        fill: #7d7d7d;
      }

      .cls-1 {
        fill-rule: evenodd;
      }
    </style>
  </defs>
  <path id="图层_1_拷贝_2" data-name="图层 1 拷贝 2" class="cls-1" d="M39,49c1.381,0,104.978.07,97,0,0,0,1.825,4.772,0,5-12.1,1.514-97-1.742-97,1.823v81.555c0,0.79,16.371.685,38.54,0.259,1.118-.022-0.686,26.386.46,26.363,2.346-.047,4.515-5.782,8-11,7.065-10.579,13.639-14.114,15-15-1.336.87,1.11-.9,5.791-1,21.558-.509,44.215-1.083,61.3-1.359,1.075-.018,3.166.981,3.158-0.049C170.924,92.4,171,94.419,171,95c0,0.782.582,0.121,2,0a14.325,14.325,0,0,1,3,0c-0.752-.043-0.009,2.106,0,6,0.029,12.845,1.9,40-1,40-8.4-.01-11.254.649-25,1-13.129.335-27.724,0.561-41.9,0.712l-3.916.04C97.163,142.82,87.639,159.521,80,169c-2.722,3.377-4.794,6.99-7,7-1.688.008,0.676-33.041-.938-33.035C52.725,143.039,39,143,39,143c0,1.381,4.381,0,3,0s-8,1.381-8,0V50C34,48.619,37.619,49,39,49Z"/>
  <rect id="圆角矩形_2" data-name="圆角矩形 2" class="cls-2" x="55" y="82" width="100" height="5" rx="2.5" ry="2.5"/>
  <rect id="圆角矩形_2_拷贝" data-name="圆角矩形 2 拷贝" class="cls-2" x="55" y="113" width="50" height="5" rx="2.5" ry="2.5"/>
</svg>
