<svg xmlns="http://www.w3.org/2000/svg" width="200" height="200" viewBox="0 0 200 200">
  <metadata><?xpacket begin="﻿" id="W5M0MpCehiHzreSzNTczkc9d"?>
<x:xmpmeta xmlns:x="adobe:ns:meta/" x:xmptk="Adobe XMP Core 5.6-c138 79.159824, 2016/09/14-01:09:01        ">
   <rdf:RDF xmlns:rdf="http://www.w3.org/1999/02/22-rdf-syntax-ns#">
      <rdf:Description rdf:about=""/>
   </rdf:RDF>
</x:xmpmeta>
                                                                                                    
                                                                                                    
                                                                                                    
                                                                                                    
                                                                                                    
                                                                                                    
                                                                                                    
                                                                                                    
                                                                                                    
                                                                                                    
                                                                                                    
                                                                                                    
                                                                                                    
                                                                                                    
                                                                                                    
                                                                                                    
                                                                                                    
                                                                                                    
                                                                                                    
                                                                                                    
                           
<?xpacket end="w"?></metadata>
<defs>
    <style>
      .cls-1 {
        fill: none;
        stroke: #7d7d7d;
        stroke-width: 10px;
      }

      .cls-1, .cls-2 {
        fill-rule: evenodd;
      }

      .cls-2 {
        fill: #7d7d7d;
      }
    </style>
  </defs>
  <path id="多边形_1" data-name="多边形 1" class="cls-1" d="M29,99s0.415-22.862,10-23c3.1-.045,13.725-0.776,13.725-0.776L95.017,41.01l-4.452,59.5,4.452,59.5L52.725,125.8S40.615,124.981,39,125C26.666,125.148,29,99,29,99Z"/>
  <path id="形状_2" data-name="形状 2" class="cls-2" d="M116.048,62.731l3.047-4.345S145,79.369,145,100.389c0,20.983-25.9,42-25.9,42L113,139.5s25.905-17.658,25.905-39.107C138.905,79.855,116.048,62.731,116.048,62.731ZM137.5,35.611L142,32s36,33.194,36,67.4c0,33.793-36,68.6-36,68.6l-6-2.407s36-32.536,36-66.195C172,65.064,137.5,35.611,137.5,35.611Z"/>
</svg>
